Coordinates
version=1
nRows=11
nColumns=60
inDegrees=yes

Units are S.I. units (second, meters, Newtons, ...)
If the header above contains a line with 'inDegrees', this indicates whether rotational values are in degrees (yes) or radians (no).

endheader
time	pelvis_tilt	pelvis_list	pelvis_rotation	pelvis_tx	pelvis_ty	pelvis_tz	hip_flexion_r	hip_adduction_r	hip_rotation_r	knee_angle_r_beta	knee_angle_r	ankle_angle_r	subtalar_angle_r	mtp_angle_r	hip_flexion_l	hip_adduction_l	hip_rotation_l	knee_angle_l_beta	knee_angle_l	ankle_angle_l	subtalar_angle_l	mtp_angle_l	L5_S1_Flex_Ext	L5_S1_Lat_Bending	L5_S1_axial_rotation	L4_L5_Flex_Ext	L4_L5_Lat_Bending	L4_L5_axial_rotation	L3_L4_Flex_Ext	L3_L4_Lat_Bending	L3_L4_axial_rotation	L2_L3_Flex_Ext	L2_L3_Lat_Bending	L2_L3_axial_rotation	L1_L2_Flex_Ext	L1_L2_Lat_Bending	L1_L2_axial_rotation	L1_T12_Flex_Ext	L1_T12_Lat_Bending	L1_T12_axial_rotation	Abs_r3	Abs_r2	Abs_r1	Abs_t1	Abs_t2	arm_flex_r	arm_add_r	arm_rot_r	elbow_flex_r	pro_sup_r	wrist_flex_r	wrist_dev_r	arm_flex_l	arm_add_l	arm_rot_l	elbow_flex_l	pro_sup_l	wrist_flex_l	wrist_dev_l
     21.59000000	     -0.11739966	     -3.23599166	     91.50234833	      0.38890400	      0.90795443	      0.39076769	     24.73357822	     -6.31603572	      3.61225213	      0.37037048	    -21.22066534	      2.77708332	      0.00000000	      0.00000000	     24.87996725	     -4.00257791	      1.09385799	      0.35288796	    -20.21899077	      3.66339042	      0.00000000	      0.00000000	    -10.32281741	      0.20613636	      0.13263244	    -19.17050421	      0.27416136	      0.14092196	    -16.95935672	      0.50119995	      0.14092196	    -11.79794802	      0.50119995	      0.11605338	     -9.58576825	      0.42035327	      0.10776386	     -5.89845787	      0.31930523	      0.09947433	    -73.73485247	      2.33185577	      0.73766183	      0.00000000	      0.00000000	     49.70663308	    -25.27040419	     13.76497008	     67.32804376	     73.81574088	      4.76017258	      7.72060406	     56.14172814	    -24.44099389	     26.58018913	     60.92504788	     63.72192446	      7.49482529	      7.52964912
     21.60000000	     -0.22385399	     -3.54136703	     91.45073680	      0.38846840	      0.90652165	      0.39252841	     25.55452464	     -6.43880303	      3.72000638	      0.38184860	    -21.87831322	      2.80091212	      0.00000000	      0.00000000	     25.60214772	     -3.87787640	      1.00954237	      0.36218818	    -20.75185436	      3.67105352	      0.00000000	      0.00000000	    -10.41035444	      0.19736660	      0.11866186	    -19.33306923	      0.26249758	      0.12607823	    -17.10317131	      0.47987716	      0.12607823	    -11.89799409	      0.47987716	      0.10382913	     -9.66705514	      0.40246997	      0.09641276	     -5.94847653	      0.30572087	      0.08899640	    -74.36012075	      2.23265047	      0.65996168	      0.00000000	      0.00000000	     51.43200478	    -24.93828795	     14.08831142	     65.95218145	     73.80295256	      4.77156639	      7.74176243	     57.80596915	    -24.06673835	     27.01175966	     59.63120724	     63.67961928	      7.48080533	      7.47998257
     21.61000000	     -0.35362221	     -3.99925603	     91.39605830	      0.38799210	      0.90482175	      0.39419639	     26.52190850	     -6.60022324	      3.71419057	      0.39236658	    -22.48094904	      2.99951137	      0.00000000	      0.00000000	     26.43154589	     -3.74520059	      0.73515394	      0.36950387	    -21.17101211	      3.77436515	      0.00000000	      0.00000000	    -10.45464299	      0.18337060	      0.09315354	    -19.41531750	      0.24388290	      0.09897563	    -17.17593297	      0.44584728	      0.09897563	    -11.94861147	      0.44584728	      0.08150935	     -9.70818148	      0.37392933	      0.07568725	     -5.97378301	      0.28404106	      0.06986515	    -74.67646942	      2.07432490	      0.51809204	      0.00000000	      0.00000000	     53.21054680	    -24.54103844	     14.69077638	     64.11548514	     73.78445085	      4.82427342	      7.66621048	     59.55201201	    -23.70237057	     27.86771296	     57.87609116	     63.57439133	      7.49787005	      7.30328964
     21.62000000	     -0.47119925	     -4.27985080	     91.39424476	      0.38740604	      0.90345096	      0.39575959	     27.26399050	     -6.74053517	      3.86599117	      0.40279634	    -23.07853000	      3.02630057	      0.00000000	      0.00000000	     27.08941560	     -3.58602058	      0.74110416	      0.37765351	    -21.63795218	      3.73901327	      0.00000000	      0.00000000	    -10.54904731	      0.17679025	      0.07502455	    -19.59063576	      0.23513103	      0.07971358	    -17.33102983	      0.42984781	      0.07971358	    -12.05650617	      0.42984781	      0.06564648	     -9.79584533	      0.36051068	      0.06095745	     -6.02772563	      0.27384810	      0.05626841	    -75.35079004	      1.99988666	      0.41726403	      0.00000000	      0.00000000	     54.77817655	    -24.29164940	     14.85063150	     63.01656601	     73.76162271	      4.86083406	      7.52606406	     61.10634154	    -23.35696113	     28.22340758	     56.85535975	     63.47500092	      7.51318168	      7.09503924
     21.63000000	     -0.64620177	     -4.70871414	     91.40631082	      0.38676615	      0.90184420	      0.39727851	     28.12477822	     -6.95779525	      3.98182616	      0.41165860	    -23.58630021	      3.22347548	      0.00000000	      0.00000000	     27.85829248	     -3.36044884	      0.64565772	      0.38411886	    -22.00838968	      3.79296757	      0.00000000	      0.00000000	    -10.59431896	      0.16730757	      0.06824114	    -19.67470974	      0.22251907	      0.07250621	    -17.40540661	      0.40679163	      0.07250621	    -12.10824714	      0.40679163	      0.05971100	     -9.83788458	      0.34117360	      0.05544592	     -6.05359385	      0.25915943	      0.05118085	    -75.67416088	      1.89261672	      0.37953673	      0.00000000	      0.00000000	     56.35162519	    -24.08768839	     15.35025643	     61.10572394	     73.54118653	      5.59516669	      4.86967333	     62.92263225	    -22.90965288	     29.61871764	     55.07312203	     62.09706962	      7.88803326	      3.77872781
     21.64000000	     -0.70669454	     -4.93620080	     91.48150072	      0.38606742	      0.90055337	      0.39863695	     28.79638176	     -7.07169172	      4.00656864	      0.42289717	    -24.23022274	      3.22396795	      0.00000000	      0.00000000	     28.49118510	     -3.24241946	      0.59428101	      0.39325165	    -22.53165983	      3.75050203	      0.00000000	      0.00000000	    -10.69824824	      0.17353839	      0.03991760	    -19.86771680	      0.23080606	      0.04241245	    -17.57615203	      0.42194125	      0.04241245	    -12.22702791	      0.42194125	      0.03492790	     -9.93439331	      0.35387949	      0.03243305	     -6.11297904	      0.26881097	      0.02993820	    -76.41651732	      1.96310101	      0.22200972	      0.00000000	      0.00000000	     57.77433091	    -23.78951679	     15.32780862	     60.40963815	     73.54151604	      5.61101107	      4.87959880	     64.33177935	    -22.56933506	     29.66252472	     54.26252557	     62.09982318	      7.86495676	      3.76436198
     21.65000000	     -0.78647938	     -5.28156395	     91.56155444	      0.38534283	      0.89902961	      0.39999136	     29.58896707	     -7.22379927	      3.99827045	      0.43370717	    -24.84959021	      3.35451856	      0.00000000	      0.00000000	     29.26788967	     -3.09200666	      0.55644457	      0.40291204	    -23.08515924	      3.78411835	      0.00000000	      0.00000000	    -10.76843326	      0.17812973	      0.02478884	    -19.99805741	      0.23691255	      0.02633814	    -17.69145900	      0.43310464	      0.02633814	    -12.30724237	      0.43310464	      0.02169023	     -9.99956713	      0.36324215	      0.02014093	     -6.15308276	      0.27592296	      0.01859163	    -76.91784193	      2.01503918	      0.13786808	      0.00000000	      0.00000000	     59.24208977	    -23.54434939	     15.42843860	     59.21320614	     73.56888510	      5.64072519	      4.86927936	     65.81951416	    -22.11537610	     29.99758776	     53.09527976	     62.13502188	      7.86287154	      3.71759924
     21.66000000	     -0.83381181	     -5.59437041	     91.68194269	      0.38457043	      0.89758226	      0.40122021	     30.24284577	     -7.33967609	      4.13045937	      0.44201390	    -25.32553068	      3.39458996	      0.00000000	      0.00000000	     29.96977648	     -2.94883908	      0.61971171	      0.41087042	    -23.54114089	      3.78447343	      0.00000000	      0.00000000	    -10.85328598	      0.19218288	      0.01679113	    -20.15563740	      0.25560323	      0.01784058	    -17.83086354	      0.46727346	      0.01784058	    -12.40422055	      0.46727346	      0.01469224	    -10.07836136	      0.39189933	      0.01364280	     -6.20156761	      0.29769128	      0.01259335	    -77.52393645	      2.17401119	      0.09338725	      0.00000000	      0.00000000	     60.55328468	    -23.43937759	     15.37363201	     58.48446581	     73.59858243	      5.66450946	      4.81470007	     67.14410408	    -21.74884878	     30.13869888	     52.44045235	     62.17235375	      7.87403040	      3.63141890
     21.67000000	     -0.81867019	     -5.98998885	     91.74737137	      0.38392504	      0.89586812	      0.40247372	     31.08327728	     -7.40039182	      4.04122079	      0.45271776	    -25.93881716	      3.52016741	      0.00000000	      0.00000000	     30.84688675	     -2.89928575	      0.59710191	      0.42203490	    -24.18081856	      3.86356803	      0.00000000	      0.00000000	    -10.90727533	      0.20460707	      0.01798992	    -20.25590102	      0.27212740	      0.01911429	    -17.91956264	      0.49748162	      0.01911429	    -12.46592498	      0.49748162	      0.01574118	    -10.12849587	      0.41723473	      0.01461681	     -6.23241712	      0.31693634	      0.01349244	    -77.90957696	      2.31455605	      0.10005452	      0.00000000	      0.00000000	     61.92643110	    -23.22115426	     15.46325591	     57.39920683	     73.67810928	      5.72966387	      4.71940605	     68.54386255	    -21.29058194	     30.48330925	     51.27863580	     62.24989326	      7.90497168	      3.48229239
     21.68000000	     -0.79301296	     -6.37322749	     91.81823154	      0.38326463	      0.89419849	      0.40357059	     31.82126379	     -7.43877931	      4.11520146	      0.46107020	    -26.41737631	      3.57688176	      0.00000000	      0.00000000	     31.63180951	     -2.84125308	      0.65184055	      0.43096519	    -24.69248677	      3.93000408	      0.00000000	      0.00000000	    -10.96821700	      0.22195525	      0.02623159	    -20.36907579	      0.29520048	      0.02787106	    -18.01968371	      0.53966199	      0.02787106	    -12.53557521	      0.53966199	      0.02295264	    -10.18508631	      0.45261114	      0.02131316	     -6.26723919	      0.34380868	      0.01967369	    -78.34487721	      2.51080217	      0.14589221	      0.00000000	      0.00000000	     63.14406710	    -23.09671823	     15.45160422	     56.70574037	     73.76119048	      5.80004176	      4.60784104	     69.76982452	    -20.88666162	     30.63770426	     50.58558692	     62.32432432	      7.94817504	      3.30674827
     21.69000000	     -0.72090552	     -6.83673532	     91.84933374	      0.38275249	      0.89230472	      0.40467810	     32.68667182	     -7.42735048	      4.04073008	      0.47047703	    -26.95634826	      3.67150128	      0.00000000	      0.00000000	     32.56141987	     -2.86946879	      0.63466972	      0.44127965	    -25.28346145	      4.06058490	      0.00000000	      0.00000000	    -11.00938033	      0.23573591	      0.04000971	    -20.44552021	      0.31352875	      0.04251031	    -18.08731095	      0.57316828	      0.04251031	    -12.58262078	      0.57316828	      0.03500849	    -10.22331058	      0.48071266	      0.03250789	     -6.29075992	      0.36515492	      0.03000728	    -78.63890277	      2.66669172	      0.22252198	      0.00000000	      0.00000000	     64.35747937	    -22.97538164	     15.46916258	     55.93563193	     73.88898116	      5.90997616	      4.47041273	     70.96030923	    -20.49817881	     30.78940862	     49.70391907	     62.42423190	      8.01199624	      3.07530305
